<?xml version="1.0" encoding="utf-8"?>
<!-- Generator: Adobe Illustrator 27.0.0, SVG Export Plug-In . SVG Version: 6.00 Build 0)  -->
<svg version="1.1" id="Layer_1" xmlns="http://www.w3.org/2000/svg" xmlns:xlink="http://www.w3.org/1999/xlink" x="0px" y="0px"
	 viewBox="0 0 203 57" style="enable-background:new 0 0 203 57;" xml:space="preserve">
<style type="text/css">
	.st0{enable-background:new    ;}
	.st1{fill:#FFFFFF;}
	.st2{fill:#6D6D6D;}
</style>
<g class="st0">
	<path class="st1" d="M30.4,26.2V39h-3.6v-2.8c-1.3,1.9-3.6,3-7,3C15,39.2,12,36.7,12,33c0-3.4,2.2-6.2,8.5-6.2h6.1V26
		c0-3.2-1.9-5.1-5.7-5.1c-2.5,0-5.1,0.9-6.7,2.3l-1.6-2.9c2.2-1.8,5.4-2.7,8.8-2.7C27.2,17.6,30.4,20.4,30.4,26.2z M26.6,32.5v-3
		h-5.9c-3.8,0-4.9,1.5-4.9,3.3c0,2.1,1.8,3.4,4.7,3.4C23.4,36.3,25.6,35,26.6,32.5z"/>
	<path class="st1" d="M57.3,17.8V39h-3.6v-3.2c-1.6,2.2-4.2,3.4-7.2,3.4c-5.5,0-9.1-3-9.1-9.2V17.8h3.8v11.8c0,4.2,2.1,6.2,5.7,6.2
		c4,0,6.6-2.5,6.6-7v-11H57.3z"/>
	<path class="st1" d="M76.6,37.8c-1.2,1-2.9,1.5-4.6,1.5c-4.3,0-6.7-2.4-6.7-6.6V21h-3.6v-3.2h3.6v-4.6H69v4.6h6.1V21H69v11.5
		c0,2.3,1.2,3.6,3.3,3.6c1.1,0,2.2-0.4,3-1L76.6,37.8z"/>
</g>
<g class="st0">
	<path class="st1" d="M116.8,46c-1.3,0.9-3.2,1.4-5.1,1.4c-5.1,0-8-2.6-8-7.7v-8.8h-3.3V26h3.3v-5.2h6.2V26h5.4v4.8h-5.4v8.8
		c0,1.8,1,2.8,2.7,2.8c0.9,0,1.8-0.3,2.5-0.8L116.8,46z"/>
	<path class="st1" d="M140.6,38h-16.3c0.6,2.7,2.9,4.3,6.2,4.3c2.3,0,3.9-0.7,5.4-2.1l3.3,3.6c-2,2.3-5,3.5-8.9,3.5
		c-7.4,0-12.3-4.7-12.3-11.1s4.9-11.1,11.5-11.1c6.3,0,11.2,4.2,11.2,11.2C140.7,36.8,140.6,37.5,140.6,38z M124.2,34.4h10.6
		c-0.4-2.7-2.5-4.5-5.3-4.5S124.6,31.6,124.2,34.4z"/>
	<path class="st1" d="M143.2,36.2c0-6.5,5-11.1,12-11.1c4.5,0,8.1,2,9.6,5.5l-4.8,2.6c-1.2-2-2.9-3-4.8-3c-3.2,0-5.6,2.2-5.6,6
		s2.5,6,5.6,6c2,0,3.7-0.9,4.8-3l4.8,2.6c-1.6,3.4-5.1,5.4-9.6,5.4C148.2,47.3,143.2,42.7,143.2,36.2z"/>
	<path class="st1" d="M190.3,34.7V47h-6.2V35.6c0-3.5-1.6-5.1-4.4-5.1c-3,0-5.2,1.8-5.2,5.8V47h-6.2V17.3h6.2v10.4
		c1.7-1.7,4.1-2.6,6.8-2.6C186.5,25.2,190.3,28.1,190.3,34.7z"/>
</g>
<rect x="-81" y="-295" class="st2" width="11" height="2"/>
<image style="overflow:visible;" width="512" height="512" xlink:href="tire-white.png"  transform="matrix(4.553111e-02 0 0 4.553111e-02 76 17.5413)">
</image>
</svg>
